<?xml version="1.0" encoding="UTF-8" standalone="no"?><!-- Generator: Gravit.io --><svg xmlns="http://www.w3.org/2000/svg" xmlns:xlink="http://www.w3.org/1999/xlink" style="isolation:isolate" viewBox="0 0 43 43" width="43pt" height="43pt"><defs><clipPath id="_clipPath_5MJ1bmFMCWpI43GhfmYSmxuMQXI55VPt"><rect width="43" height="43"/></clipPath></defs><g clip-path="url(#_clipPath_5MJ1bmFMCWpI43GhfmYSmxuMQXI55VPt)"><g><path d=" M 17 3 L 17 17 L 3 17 L 3 3 L 17 3 Z  M 20 0 L 0 0 L 0 20 L 20 20 L 20 0 L 20 0 L 20 0 Z " fill="rgb(0,0,0)"/></g><g><path d=" M 17 26 L 17 40 L 3 40 L 3 26 L 17 26 Z  M 20 23 L 0 23 L 0 43 L 20 43 L 20 23 L 20 23 L 20 23 Z " fill="rgb(0,0,0)"/></g><g><path d=" M 40 3 L 40 17 L 26 17 L 26 3 L 40 3 Z  M 43 0 L 23 0 L 23 20 L 43 20 L 43 0 L 43 0 L 43 0 Z " fill="rgb(0,0,0)"/></g><g><path d=" M 40 26 L 40 40 L 26 40 L 26 26 L 40 26 Z  M 43 23 L 23 23 L 23 43 L 43 43 L 43 23 L 43 23 L 43 23 Z " fill="rgb(0,0,0)"/></g></g></svg>